# xmcd
#
# Track frame offsets: 
#        150
#        12509
#        25711
#        38557
#        51090
#        64256
#        76753
#        89249
#        102378
#        115857
#        129501
#        142415
#        156269
#        170513
#        184512
#        196336
#        210435
#        224592
#        239129
#        254259
#        269982
#        282104
#        295925
#        310541
#        325531
#
# Disc length: 4532 seconds
#
# Revision: 5
# Processed by: cddbd v1.5.2PL0 Copyright (c) Steve Scherf et al.
# Submitted via: ExactAudioCopyFreeDBPlugin 1.0
#
DISCID=7a11b219
DTITLE=Blind Lemon Jefferson - The Complete 94 Classic Sides Remastere
DTITLE=d [disc D]
DYEAR=2002
DGENRE=Blues
TTITLE0=Eagle Eyed Mama
TTITLE1=Dynamite Blues
TTITLE2=Disgusted Blues
TTITLE3=Competition Bed Blues
TTITLE4=Sad News Blues
TTITLE5=Oil Well Blues
TTITLE6=Tin Cup Blues
TTITLE7=Big Night Blues
TTITLE8=Empty House Blues
TTITLE9=Saturday Night Spender Blues
TTITLE10=That Black Snake Moan No. 2
TTITLE11=Peach Orchard Mama
TTITLE12=Big Night Blues
TTITLE13=Bed Spring Blues
TTITLE14=Yo Yo Blues
TTITLE15=Mosquito Moan
TTITLE16=Southern Woman Blues
TTITLE17=Bakershop Blues
TTITLE18=Pneumonia Blues
TTITLE19=Long Distance Moan
TTITLE20=That Crawlin' Baby Blues
TTITLE21=Fence Breakin' Yellin' Blues
TTITLE22=Cat Man Blues
TTITLE23=The Cheaters Spell
TTITLE24=Bootin' Me 'Bout
EXTD=21196-1 Peach Orchard Blues (Untraced Master) not included in rec
EXTD=ording
EXTT0=
EXTT1=
EXTT2=
EXTT3=
EXTT4=
EXTT5=
EXTT6=
EXTT7=
EXTT8=
EXTT9=
EXTT10=
EXTT11=
EXTT12=
EXTT13=
EXTT14=
EXTT15=
EXTT16=
EXTT17=
EXTT18=
EXTT19=
EXTT20=
EXTT21=
EXTT22=
EXTT23=
EXTT24=
PLAYORDER=
